<svg viewBox="0 0 213 189" fill="none" xmlns="http://www.w3.org/2000/svg">
    <path d="M147.917 35.4375L147.584 35.6811C145.957 35.5187 143.997 35.4375 142 35.4375H94.6667C88.5651 35.4375 82.6484 36.2053 76.9906 37.6523C76.9536 36.9141 76.9167 36.1832 76.9167 35.4375C76.9167 15.8657 92.4849 0 112.417 0C132.016 0 147.917 15.8657 147.917 35.4375ZM142 47.25C143.294 47.25 144.256 47.2869 145.846 47.3607C147.436 47.4715 148.989 47.6191 150.505 47.8406C157.014 40.2732 166.702 35.4375 177.5 35.4375H189.333L182.381 63.16C188.261 68.6232 192.994 75.2678 196.248 82.6875H201.167C207.712 82.6875 213 87.9662 213 94.5V129.938C213 136.471 207.712 141.75 201.167 141.75H189.333C185.968 146.217 181.974 150.203 177.5 153.562V177.188C177.5 183.721 172.212 189 165.667 189H153.833C147.288 189 142 183.721 142 177.188V165.375H94.6667V177.188C94.6667 183.721 89.3786 189 82.8333 189H71C64.4547 189 59.1667 183.721 59.1667 177.188V153.562C46.2609 143.891 37.4599 129.125 35.7921 112.219H25.1458C11.2565 112.219 0 100.997 0 87.1172C0 73.2375 11.2565 62.0156 25.1458 62.0156H26.625C31.5247 62.0156 35.5 65.9654 35.5 70.875C35.5 75.7846 31.5247 79.7344 26.625 79.7344H25.1458C21.0596 79.7344 17.75 82.7244 17.75 87.1172C17.75 91.1777 21.0596 94.5 25.1458 94.5H36.6833C41.1578 72.4254 58.0203 54.8174 79.6901 49.1695C84.4604 47.9145 89.1568 47.25 94.6667 47.25H142V47.25ZM156.792 88.5938C151.873 88.5938 147.917 92.5436 147.917 97.4531C147.917 102.363 151.873 106.312 156.792 106.312C161.71 106.312 165.667 102.363 165.667 97.4531C165.667 92.5436 161.71 88.5938 156.792 88.5938Z" fill="url(#paint0_linear_130_1777)"/>
    <defs>
        <linearGradient id="paint0_linear_130_1777" x1="106.5" y1="0" x2="106.5" y2="189" gradientUnits="userSpaceOnUse">
            <stop stop-color="#BD82EB"/>
            <stop offset="1" stop-color="#5673C3"/>
        </linearGradient>
    </defs>
</svg>
