<svg viewBox="0 0 119 119" fill="none" xmlns="http://www.w3.org/2000/svg">
<path d="M59.8469 108.984C52.8557 108.984 45.8148 106.307 40.5094 101.001L18.0482 78.54C12.594 73.0858 9.71816 65.5491 10.0652 57.8637L11.2552 33.0225C11.8007 21.1721 21.1719 11.8008 33.0719 11.2058L57.8636 10.0158C65.5986 9.66872 73.0857 12.5446 78.5398 17.9987L101.001 40.46C111.661 51.1204 111.661 68.5241 101.001 79.1846L79.234 100.952C73.879 106.307 66.8877 108.984 59.8469 108.984ZM23.304 73.2346L45.7652 95.6958C53.5498 103.48 66.1936 103.48 73.9782 95.6958L95.7452 73.9287C103.53 66.1441 103.53 53.5004 95.7452 45.7158L73.2344 23.3041C69.2677 19.3375 63.8632 17.255 58.1611 17.5029L33.3694 18.6929C25.3369 19.04 19.0398 25.3371 18.6432 33.3696L17.4532 58.2108C17.2052 63.7641 19.3373 69.2679 23.304 73.2346Z" fill="#292D32"/>
<path d="M47.1038 63.2187C38.2284 63.2187 30.9893 55.9796 30.9893 47.1041C30.9893 38.2287 38.2284 30.9896 47.1038 30.9896C55.9793 30.9896 63.2184 38.2287 63.2184 47.1041C63.2184 55.9796 55.9793 63.2187 47.1038 63.2187ZM47.1038 38.4271C42.3438 38.4271 38.4268 42.3441 38.4268 47.1041C38.4268 51.8641 42.3438 55.7812 47.1038 55.7812C51.8638 55.7812 55.7809 51.8641 55.7809 47.1041C55.7809 42.3441 51.8638 38.4271 47.1038 38.4271Z" fill="#292D32"/>
<path d="M64.4583 88.0104C63.5162 88.0104 62.5741 87.6633 61.8304 86.9196C60.3925 85.4816 60.3925 83.1016 61.8304 81.6637L81.6637 61.8304C83.1016 60.3925 85.4816 60.3925 86.9196 61.8304C88.3575 63.2683 88.3575 65.6483 86.9196 67.0862L67.0862 86.9196C66.3425 87.6633 65.4004 88.0104 64.4583 88.0104Z" fill="#292D32"/>
</svg>
